<svg xmlns="http://www.w3.org/2000/svg" data-name="Layer 3" viewBox="0 0 64 64"><path d="M62,47H60V15a6.006,6.006,0,0,0-6-6H10a6.006,6.006,0,0,0-6,6V47H2a1,1,0,0,0-1,1,7.008,7.008,0,0,0,7,7H56a7.008,7.008,0,0,0,7-7A1,1,0,0,0,62,47ZM6,15a4,4,0,0,1,4-4H54a4,4,0,0,1,4,4V47H56V14a1,1,0,0,0-1-1H9a1,1,0,0,0-1,1V47H6ZM26,47H10V15H54V47H38a1,1,0,0,0-1,1v1H27V48A1,1,0,0,0,26,47Zm30,6H8a5.008,5.008,0,0,1-4.9-4H25v1a1,1,0,0,0,1,1H38a1,1,0,0,0,1-1V49H60.9A5.008,5.008,0,0,1,56,53Z"/><rect width="12" height="2" x="30" y="23"/><rect width="8" height="2" x="44" y="23"/><path d="M51,27H45a1,1,0,0,0-1,1v6a1,1,0,0,0,1,1h6a1,1,0,0,0,1-1V28A1,1,0,0,0,51,27Zm-1,6H46V29h4Z"/><rect width="2" height="2" x="12" y="27"/><rect width="2" height="2" x="12" y="31"/><rect width="16" height="2" x="16" y="27"/><rect width="8" height="2" x="34" y="27"/><rect width="13" height="2" x="16" y="31"/><rect width="11" height="2" x="31" y="31"/><rect width="5" height="2" x="30" y="19"/><rect width="15" height="2" x="37" y="19"/><rect width="2" height="2" x="12" y="35"/><rect width="16" height="2" x="16" y="35"/><rect width="8" height="2" x="34" y="35"/><path d="M22,39H13a1,1,0,0,0-1,1v4a1,1,0,0,0,1,1h9a1,1,0,0,0,1-1V40A1,1,0,0,0,22,39Zm-1,4H14V41h7Z"/><rect width="14" height="2" x="25" y="39"/><rect width="11" height="2" x="41" y="39"/><rect width="19" height="2" x="33" y="43"/><rect width="6" height="2" x="25" y="43"/><path d="M15.293,24.707l1.414-1.414L14.414,21l2.293-2.293-1.414-1.414-3,3a1,1,0,0,0,0,1.414Z"/><rect width="8.944" height="2" x="15.528" y="20" transform="rotate(-63.435 20 21)"/><path d="M24.707,24.707l3-3a1,1,0,0,0,0-1.414l-3-3-1.414,1.414L25.586,21l-2.293,2.293Z"/></svg>